<svg width="12.000000" height="12.000000" viewBox="0 0 12 12" fill="none" xmlns="http://www.w3.org/2000/svg" xmlns:xlink="http://www.w3.org/1999/xlink">
	<desc>
			Created with Pixso.
	</desc>
	<defs/>
	<mask id="mask1_119" mask-type="alpha" maskUnits="userSpaceOnUse" x="0.000000" y="0.000000" width="12.000000" height="12.000000">
		<path id="Vector" d="M0 0L12 0L12 12L0 12L0 0Z" fill="#FFFFFF" fill-opacity="1.000000" fill-rule="evenodd"/>
	</mask>
	<g mask="url(#mask1_119)">
		<path id="Vector" d="M10.87 2.49L11.62 1L10.5 1.74L10.28 1.85C9.83 1.33 9.17 1 8.43 1C7.09 1 6 1.9 6 3.24C6 3.42 6.02 3.79 6.06 3.96L6 3.99C6 3.99 1.12 3.24 0.75 1.37C0.75 1.37 -0.38 3.24 1.5 4.74C1.5 4.74 0.75 5.11 0.37 4.74C0.37 4.74 0.37 5.86 2.25 6.98C2.25 6.98 1.5 7.35 1.12 6.98C1.12 6.98 2.62 8.48 3.37 8.48C3.37 8.48 3.37 9.6 0 9.6C0 9.6 4.26 12.4 8.25 9.22C10.27 7.61 10.76 5.56 10.79 4.02C10.84 3.83 10.87 3.63 10.87 3.43L10.87 3.24L12 2.12L10.87 2.49Z" fill="#FFFFFF" fill-opacity="1.000000" fill-rule="evenodd"/>
	</g>
</svg>
